<?xml version="1.0" encoding="UTF-8"?>
<svg id="Layer_2" data-name="Layer 2" xmlns="http://www.w3.org/2000/svg" viewBox="0 0 576 500.45">
  <defs>
    <style>
      .cls-1 {
        fill: #4f46e5;
      }
    </style>
  </defs>
  <g id="Layer_1-2" data-name="Layer 1">
    <path class="cls-1" d="M386.6,211.55L265.9,22.15c-4.8-7.6-12.6-12.8-21.4-14.3L201.4.25c-10.8-1.9-20.2,7.3-18.6,18.1l24,161.6-105-18.5-33.8-61.8c-3.5-6.5-9.8-11-16.9-12.2l-17.1-3c-9.8-1.7-18.8,5.9-18.8,15.8l.6,106.3c.2,30.9,22.4,57.3,52.9,62.7l13.5,2.4h0l417.6,73.6c30.5,5.4,59.5-15,64.9-45.4,5.4-30.4-15-59.5-45.4-64.9l-132.7-23.4ZM32,436.45c-17.7,0-32,14.3-32,32s14.3,32,32,32h512c17.7,0,32-14.3,32-32s-14.3-32-32-32H32Z"/>
  </g>
</svg>