<?xml version="1.0" encoding="UTF-8"?>
<svg id="Layer_2" data-name="Layer 2" xmlns="http://www.w3.org/2000/svg" viewBox="0 0 512 512">
  <defs>
    <style>
      .cls-1 {
        fill: #475569;
      }
    </style>
  </defs>
  <g id="Layer_1-2" data-name="Layer 1">
    <path class="cls-1" d="M406.5,399.6c-19.1-46.7-65-79.6-118.5-79.6h-64c-53.5,0-99.4,32.9-118.5,79.6-35.6-37.3-57.5-87.9-57.5-143.6,0-114.9,93.1-208,208-208s208,93.1,208,208c0,55.7-21.9,106.2-57.5,143.6ZM366.4,432.3c-32,20.1-69.8,31.7-110.4,31.7s-78.4-11.6-110.5-31.7c7.3-36.7,39.7-64.3,78.5-64.3h64c38.8,0,71.2,27.6,78.5,64.3h-.1ZM256,512c141.4,0,256-114.6,256-256S397.4,0,256,0,0,114.6,0,256s114.6,256,256,256ZM256,240c-22.1,0-40-17.9-40-40s17.9-40,40-40,40,17.9,40,40-17.9,40-40,40ZM168,200c0,48.6,39.4,88,88,88s88-39.4,88-88-39.4-88-88-88-88,39.4-88,88Z"/>
  </g>
</svg>